REM DIRINDEX 1\2\4,1\2\5,1\3\6,1\3\7,1\3\8
REM DIRNAME cjc092,folder01,folder02,folder03,folder04,folder05,folder06,folder07
TITLE ""
FILE "LEVEL5-019-midashigo.mp3" MP3
  TRACK 01 AUDIO
    TITLE "0:"
    INDEX 01 00:00:00
  TRACK 02 AUDIO
    TITLE "6:cjc092_4096"
    INDEX 01 00:00:05
  TRACK 03 AUDIO
    TITLE "0:"
    INDEX 01 00:03:25
  TRACK 04 AUDIO
    TITLE "7:cjc092_4097"
    INDEX 01 00:04:03
  TRACK 05 AUDIO
    TITLE "8:cjc092_4098"
    INDEX 01 00:05:30
  TRACK 06 AUDIO
    TITLE "0:"
    INDEX 01 00:07:70
  TRACK 07 AUDIO
    TITLE "7:cjc092_4099"
    INDEX 01 00:08:23
  TRACK 08 AUDIO
    TITLE "8:cjc092_4100"
    INDEX 01 00:09:44
  TRACK 09 AUDIO
    TITLE "0:"
    INDEX 01 00:12:26
  TRACK 10 AUDIO
    TITLE "7:cjc092_4101"
    INDEX 01 00:12:58
  TRACK 11 AUDIO
    TITLE "8:cjc092_4102"
    INDEX 01 00:14:04
  TRACK 12 AUDIO
    TITLE "0:"
    INDEX 01 00:16:02
  TRACK 13 AUDIO
    TITLE "7:cjc092_4103"
    INDEX 01 00:16:34
  TRACK 14 AUDIO
    TITLE "8:cjc092_4104"
    INDEX 01 00:17:49
  TRACK 15 AUDIO
    TITLE "0:"
    INDEX 01 00:20:53
  TRACK 16 AUDIO
    TITLE "7:cjc092_4105"
    INDEX 01 00:21:13
  TRACK 17 AUDIO
    TITLE "8:cjc092_4106"
    INDEX 01 00:22:36
  TRACK 18 AUDIO
    TITLE "0:"
    INDEX 01 00:27:08
  TRACK 19 AUDIO
    TITLE "7:cjc092_4107"
    INDEX 01 00:27:43
  TRACK 20 AUDIO
    TITLE "8:cjc092_4108"
    INDEX 01 00:28:60
  TRACK 21 AUDIO
    TITLE "0:"
    INDEX 01 00:32:19
  TRACK 22 AUDIO
    TITLE "7:cjc092_4109"
    INDEX 01 00:32:52
  TRACK 23 AUDIO
    TITLE "8:cjc092_4110"
    INDEX 01 00:33:69
  TRACK 24 AUDIO
    TITLE "0:"
    INDEX 01 00:37:52
  TRACK 25 AUDIO
    TITLE "7:cjc092_4111"
    INDEX 01 00:38:10
  TRACK 26 AUDIO
    TITLE "8:cjc092_4112"
    INDEX 01 00:39:52
  TRACK 27 AUDIO
    TITLE "0:"
    INDEX 01 00:41:69
  TRACK 28 AUDIO
    TITLE "7:cjc092_4113"
    INDEX 01 00:42:27
  TRACK 29 AUDIO
    TITLE "8:cjc092_4114"
    INDEX 01 00:43:58
  TRACK 30 AUDIO
    TITLE "0:"
    INDEX 01 00:45:71
  TRACK 31 AUDIO
    TITLE "7:cjc092_4115"
    INDEX 01 00:46:31
  TRACK 32 AUDIO
    TITLE "8:cjc092_4116"
    INDEX 01 00:47:56
  TRACK 33 AUDIO
    TITLE "0:"
    INDEX 01 00:49:65
  TRACK 34 AUDIO
    TITLE "7:cjc092_4117"
    INDEX 01 00:50:25
  TRACK 35 AUDIO
    TITLE "8:cjc092_4118"
    INDEX 01 00:51:56
  TRACK 36 AUDIO
    TITLE "0:"
    INDEX 01 00:53:43
  TRACK 37 AUDIO
    TITLE "7:cjc092_4119"
    INDEX 01 00:54:01
  TRACK 38 AUDIO
    TITLE "8:cjc092_4120"
    INDEX 01 00:55:12
  TRACK 39 AUDIO
    TITLE "0:"
    INDEX 01 00:56:61
  TRACK 40 AUDIO
    TITLE "7:cjc092_4121"
    INDEX 01 00:57:11
  TRACK 41 AUDIO
    TITLE "8:cjc092_4122"
    INDEX 01 00:58:26
  TRACK 42 AUDIO
    TITLE "0:"
    INDEX 01 01:00:02
  TRACK 43 AUDIO
    TITLE "7:cjc092_4123"
    INDEX 01 01:00:35
  TRACK 44 AUDIO
    TITLE "8:cjc092_4124"
    INDEX 01 01:01:52
  TRACK 45 AUDIO
    TITLE "0:"
    INDEX 01 01:03:69
  TRACK 46 AUDIO
    TITLE "7:cjc092_4125"
    INDEX 01 01:04:33
  TRACK 47 AUDIO
    TITLE "8:cjc092_4126"
    INDEX 01 01:05:50
  TRACK 48 AUDIO
    TITLE "0:"
    INDEX 01 01:06:59
  TRACK 49 AUDIO
    TITLE "7:cjc092_4127"
    INDEX 01 01:07:14
  TRACK 50 AUDIO
    TITLE "8:cjc092_4128"
    INDEX 01 01:08:33
  TRACK 51 AUDIO
    TITLE "0:"
    INDEX 01 01:11:29
  TRACK 52 AUDIO
    TITLE "7:cjc092_4129"
    INDEX 01 01:11:60
  TRACK 53 AUDIO
    TITLE "8:cjc092_4130"
    INDEX 01 01:12:73
  TRACK 54 AUDIO
    TITLE "0:"
    INDEX 01 01:16:60
  TRACK 55 AUDIO
    TITLE "7:cjc092_4131"
    INDEX 01 01:17:16
  TRACK 56 AUDIO
    TITLE "8:cjc092_4132"
    INDEX 01 01:18:60
  TRACK 57 AUDIO
    TITLE "0:"
    INDEX 01 01:21:04
  TRACK 58 AUDIO
    TITLE "7:cjc092_4133"
    INDEX 01 01:21:39
  TRACK 59 AUDIO
    TITLE "8:cjc092_4134"
    INDEX 01 01:22:70
  TRACK 60 AUDIO
    TITLE "0:"
    INDEX 01 01:25:62
  TRACK 61 AUDIO
    TITLE "7:cjc092_4135"
    INDEX 01 01:26:21
  TRACK 62 AUDIO
    TITLE "8:cjc092_4136"
    INDEX 01 01:27:36
  TRACK 63 AUDIO
    TITLE "0:"
    INDEX 01 01:30:36
  TRACK 64 AUDIO
    TITLE "7:cjc092_4137"
    INDEX 01 01:30:71
  TRACK 65 AUDIO
    TITLE "8:cjc092_4138"
    INDEX 01 01:32:17
  TRACK 66 AUDIO
    TITLE "0:"
    INDEX 01 01:33:62
